HIERARCHY
ROOT Hips
{
	OFFSET 0.000000 0.000000 0.000000
	CHANNELS 6 Xposition Yposition Zposition Xrotation Yrotation Zrotation
	JOINT LeftUpLeg_virtual
	{
		OFFSET 0.000000 0.000000 0.000000
		CHANNELS 3 Xrotation Yrotation Zrotation
		JOINT LeftUpLeg
		{
			OFFSET 10.205400 -3.823500 0.155100
			CHANNELS 3 Xrotation Yrotation Zrotation
			JOINT LeftLeg
			{
				OFFSET 0.708757 -12.982077 0.567790
				CHANNELS 3 Xrotation Yrotation Zrotation
				JOINT LeftFoot
				{
					OFFSET -0.708756 -10.717838 -2.184338
					CHANNELS 3 Xrotation Yrotation Zrotation
					JOINT LeftToeBase
					{
						OFFSET 0.108149 -7.191104 7.560241
						CHANNELS 3 Xrotation Yrotation Zrotation
						JOINT LeftToe_End
						{
							OFFSET 0.070230 0.081724 4.490308
							CHANNELS 3 Xrotation Yrotation Zrotation
							End Site
							{
								OFFSET 0 0 0
							}
						}
					}
				}
			}
		}
	}
	JOINT RightUpLeg_virtual
	{
		OFFSET 0.000000 0.000000 0.000000
		CHANNELS 3 Xrotation Yrotation Zrotation
		JOINT RightUpLeg
		{
			OFFSET -10.205400 -3.823500 0.005500
			CHANNELS 3 Xrotation Yrotation Zrotation
			JOINT RightLeg
			{
				OFFSET -0.708756 -12.982134 0.610632
				CHANNELS 3 Xrotation Yrotation Zrotation
				JOINT RightFoot
				{
					OFFSET 0.708754 -10.717769 -1.945823
					CHANNELS 3 Xrotation Yrotation Zrotation
					JOINT RightToeBase
					{
						OFFSET -0.108140 -7.191069 7.372968
						CHANNELS 3 Xrotation Yrotation Zrotation
						JOINT RightToe_End
						{
							OFFSET -0.070227 0.081735 4.479403
							CHANNELS 3 Xrotation Yrotation Zrotation
							End Site
							{
								OFFSET 0 0 0
							}
						}
					}
				}
			}
		}
	}
	JOINT Spine_virtual
	{
		OFFSET 0.000000 0.000000 0.000000
		CHANNELS 3 Xrotation Yrotation Zrotation
		JOINT Spine
		{
			OFFSET 0.000000 6.876099 0.125700
			CHANNELS 3 Xrotation Yrotation Zrotation
			JOINT Spine1
			{
				OFFSET 0.000000 5.730043 0.104720
				CHANNELS 3 Xrotation Yrotation Zrotation
				JOINT Spine1_split
				{
					OFFSET 0.000000 5.730043 0.104720
					CHANNELS 3 Xrotation Yrotation Zrotation
					JOINT Spine2
					{
						OFFSET 0.000000 5.730043 0.104720
						CHANNELS 3 Xrotation Yrotation Zrotation
						JOINT Neck_virtual
						{
							OFFSET 0.000000 0.000000 0.000000
							CHANNELS 3 Xrotation Yrotation Zrotation
							JOINT Neck
							{
								OFFSET 0.000000 10.314075 0.188496
								CHANNELS 3 Xrotation Yrotation Zrotation
								JOINT Head
								{
									OFFSET 0.000000 7.643700 -2.377400
									CHANNELS 3 Xrotation Yrotation Zrotation
									JOINT HeadTop_End
									{
										OFFSET 0.000000 43.788605 -13.619600
										CHANNELS 3 Xrotation Yrotation Zrotation
										End Site
										{
											OFFSET 0 0 0
										}
									}
								}
							}
						}
						JOINT LeftShoulder_virtual
						{
							OFFSET 0.000000 0.000000 0.000000
							CHANNELS 3 Xrotation Yrotation Zrotation
							JOINT LeftShoulder
							{
								OFFSET 2.196100 4.412489 0.087492
								CHANNELS 3 Xrotation Yrotation Zrotation
								JOINT LeftShoulder_split
								{
									OFFSET 2.196100 4.412489 0.087492
									CHANNELS 3 Xrotation Yrotation Zrotation
									JOINT LeftArm
									{
										OFFSET 8.771219 -2.981674 -0.026999
										CHANNELS 3 Xrotation Yrotation Zrotation
										JOINT LeftForeArm
										{
											OFFSET 8.512804 0.000000 -0.000000
											CHANNELS 3 Xrotation Yrotation Zrotation
											JOINT LeftHand
											{
												OFFSET 18.484802 0.000000 -0.000000
												CHANNELS 3 Xrotation Yrotation Zrotation
												End Site
												{
													OFFSET 0 0 0
												}
											}
										}
									}
								}
							}
						}
						JOINT RightShoulder_virtual
						{
							OFFSET 0.000000 0.000000 0.000000
							CHANNELS 3 Xrotation Yrotation Zrotation
							JOINT RightShoulder
							{
								OFFSET -2.196100 4.412496 0.070690
								CHANNELS 3 Xrotation Yrotation Zrotation
								JOINT RightShoulder_split
								{
									OFFSET -2.196100 4.412496 0.070690
									CHANNELS 3 Xrotation Yrotation Zrotation
									JOINT RightArm
									{
										OFFSET -8.771282 -2.981682 -0.094208
										CHANNELS 3 Xrotation Yrotation Zrotation
										JOINT RightForeArm
										{
											OFFSET -8.494598 0.000000 0.000000
											CHANNELS 3 Xrotation Yrotation Zrotation
											JOINT RightHand
											{
												OFFSET -18.483803 0.000000 0.000001
												CHANNELS 3 Xrotation Yrotation Zrotation
												End Site
												{
													OFFSET 0 0 0
												}
											}
										}
									}
								}
							}
						}
					}
				}
			}
		}
	}
}
MOTION
Frames: 7
Frame Time: 0.03333333
0.863549 32.517132 3.017918 0.000000 0.000000 0.000000 -29.625744 -41.880398 -19.259569 4.710214 11.734453 3.839086 35.773741 -0.066291 -5.375014 -22.339898 5.496986 4.568183 -5.049228 0.382186 0.689978 0.000000 0.000000 0.000000 -27.196922 -39.103830 -17.792873 27.187518 -10.900133 -5.792318 17.326225 10.760738 -4.409748 -26.182779 -15.236808 7.219231 -2.432738 -0.149384 -0.485343 0.000000 0.000000 0.000000 -29.183476 -41.134466 -19.574453 10.900769 -4.817633 0.794878 3.188093 -1.352529 0.008663 0.596590 1.102148 0.133034 0.000000 0.000000 0.000000 3.559246 -2.168012 -0.012025 1.851567 1.905956 -3.395900 -6.729601 -1.281696 4.157840 0.000000 0.000000 0.000000 3.576306 -2.488776 0.156774 0.971470 -15.341076 -11.086161 0.699650 -1.205744 -0.481575 -20.973935 0.215833 -38.872277 2.267763 -67.599878 2.076568 0.000000 0.000000 0.000000 2.704659 -2.453998 0.082603 0.012727 11.393707 15.995234 1.719303 3.389951 -2.104587 -10.200526 -7.361124 62.185792 -0.223774 42.063570 1.180744 0.000000 0.000000 0.000000 
1.161140 32.503033 3.422953 0.000000 0.000000 0.000000 -30.531048 -44.183500 -20.824798 6.101232 13.278388 4.164510 34.248781 -0.086188 -7.730903 -23.565736 6.614341 9.351107 -4.977032 0.247526 1.038312 0.000000 0.000000 0.000000 -27.904680 -40.631293 -18.960810 26.423755 -11.132702 -6.623768 17.309446 11.070882 -5.796166 -24.531244 -14.984393 8.187571 -2.191285 -0.133196 -0.877152 0.000000 0.000000 0.000000 -30.174382 -42.821803 -20.904818 10.943992 -4.814035 0.667333 3.219735 -1.325669 -0.035200 0.546771 1.035006 0.142897 0.000000 0.000000 0.000000 3.503183 -2.145103 -0.018246 1.924089 1.876840 -3.369961 -6.591222 -1.088077 3.899000 0.000000 0.000000 0.000000 3.597193 -2.448645 0.149092 1.008732 -15.490444 -11.091983 0.628775 -1.172782 -0.479005 -20.823917 0.260369 -38.828092 2.277235 -67.690323 2.058315 0.000000 0.000000 0.000000 2.798959 -2.391452 0.061970 0.049578 11.342088 15.990434 1.660286 3.446660 -2.011434 -10.177421 -7.415773 62.333256 -0.181503 42.012989 1.149232 0.000000 0.000000 0.000000 
1.432150 32.484909 3.834341 0.000000 0.000000 0.000000 -31.802372 -46.452619 -22.551370 7.315077 14.129088 4.231753 33.003320 -0.122203 -9.668520 -24.776494 7.948540 12.992878 -4.643660 0.181927 1.021406 0.000000 0.000000 0.000000 -28.791365 -42.124659 -20.154404 25.593388 -11.045171 -7.368239 17.548035 10.711775 -7.124692 -22.956669 -15.081331 8.360674 -1.973002 -0.098625 -0.873766 0.000000 0.000000 0.000000 -31.365864 -44.407021 -22.344868 10.941718 -4.771438 0.462659 3.266652 -1.305188 -0.044691 0.528128 0.958240 0.181257 0.000000 0.000000 0.000000 3.481409 -2.136172 -0.005222 2.031824 1.842893 -3.362614 -6.453722 -0.997953 3.700918 0.000000 0.000000 0.000000 3.677205 -2.429822 0.160274 1.071409 -15.589002 -11.007645 0.514506 -1.201496 -0.566691 -20.684782 0.279992 -38.842268 2.276788 -67.732725 2.050119 0.000000 0.000000 0.000000 2.931777 -2.344675 0.071510 0.072067 11.323552 16.002353 1.670271 3.492624 -1.911693 -10.069534 -7.483309 62.360590 -0.150984 42.227484 1.121337 0.000000 0.000000 0.000000 
1.665133 32.483128 4.229230 0.000000 0.000000 0.000000 -33.292077 -48.344735 -24.299749 8.220621 14.359776 4.079860 32.111844 -0.171708 -11.035192 -25.723114 9.447122 15.357655 -3.983692 0.210664 0.604811 0.000000 0.000000 0.000000 -29.962957 -43.729962 -21.500430 24.742669 -10.576726 -7.841385 18.116998 9.661060 -8.362420 -21.505124 -15.468186 7.829915 -2.115872 -0.054993 -0.560986 0.000000 0.000000 0.000000 -32.783866 -45.926677 -23.910271 10.892636 -4.687273 0.208373 3.326815 -1.308588 -0.015685 0.618851 0.857405 0.297585 0.000000 0.000000 0.000000 3.514772 -2.143012 0.034854 2.111925 1.790882 -3.350159 -6.416710 -1.019628 3.583694 0.000000 0.000000 0.000000 3.796961 -2.438148 0.190370 1.143112 -15.632812 -10.856220 0.416328 -1.261285 -0.705312 -20.657953 0.305553 -38.913647 2.299903 -67.804538 2.092617 0.000000 0.000000 0.000000 3.069002 -2.327397 0.108888 0.071310 11.329255 16.053835 1.733334 3.555189 -1.821838 -9.932988 -7.563253 62.231383 -0.150819 42.586397 1.108549 0.000000 0.000000 0.000000 
1.854251 32.502995 4.574924 0.000000 0.000000 0.000000 -34.925763 -49.869096 -26.085573 8.949427 14.339304 3.699741 31.462450 0.019773 -11.856296 -26.332754 11.010165 16.716458 -3.256117 0.319028 -0.072235 0.000000 0.000000 0.000000 -31.336399 -45.436935 -22.997481 23.858805 -9.759158 -7.918424 19.109935 8.124223 -9.441203 -20.453381 -15.985219 6.921338 -2.628158 0.010190 -0.177217 0.000000 0.000000 0.000000 -34.314502 -47.414169 -25.553155 10.835419 -4.567243 -0.052539 3.372157 -1.329995 0.034411 0.697477 0.764454 0.404589 0.000000 0.000000 0.000000 3.600429 -2.162444 0.089650 2.113381 1.705798 -3.323958 -6.500696 -1.111655 3.559726 0.000000 0.000000 0.000000 3.918086 -2.459830 0.229329 1.202816 -15.622989 -10.696531 0.420300 -1.359774 -0.830191 -20.782471 0.326946 -39.038964 2.360363 -67.929961 2.201493 0.000000 0.000000 0.000000 3.179024 -2.339392 0.161272 0.044972 11.350139 16.163270 1.862339 3.682846 -1.760884 -9.830710 -7.634719 61.978257 -0.190005 42.945784 1.116964 0.000000 0.000000 0.000000 
2.039172 32.539070 4.885647 0.000000 0.000000 0.000000 -36.716689 -51.221989 -27.980341 9.505929 14.367187 3.164022 31.083146 0.451516 -12.249276 -26.597757 12.535557 17.234910 -2.703362 0.473026 -0.787655 0.000000 0.000000 0.000000 -33.017005 -47.259920 -24.734683 22.902990 -8.790535 -7.656454 20.735940 6.298144 -10.216483 -20.010349 -16.388762 5.878886 -3.201057 0.117744 0.049726 0.000000 0.000000 0.000000 -35.969415 -48.959527 -27.298287 10.805309 -4.432605 -0.301543 3.388300 -1.364592 0.081631 0.776632 0.628524 0.435277 0.000000 0.000000 0.000000 3.717877 -2.181569 0.143547 2.028338 1.618082 -3.284917 -6.666176 -1.228062 3.616256 0.000000 0.000000 0.000000 4.005599 -2.482198 0.260521 1.229421 -15.613766 -10.587080 0.538691 -1.456015 -0.870954 -21.027110 0.353729 -39.207693 2.439386 -68.062774 2.351107 0.000000 0.000000 0.000000 3.243368 -2.369400 0.205137 -0.001263 11.386028 16.313092 2.017436 3.882056 -1.722628 -9.784054 -7.683213 61.702180 -0.250742 43.168807 1.143985 0.000000 0.000000 0.000000 
2.205812 32.578812 5.137818 0.000000 0.000000 0.000000 -38.754210 -52.660014 -30.098817 9.983507 14.808630 2.696454 31.076534 0.973997 -12.484791 -26.611115 13.771509 17.109807 -2.445772 0.611726 -1.284479 0.000000 0.000000 0.000000 -35.036640 -49.238625 -26.786580 21.913911 -7.985513 -7.254872 23.221678 4.369082 -10.511270 -20.307004 -16.558305 4.818506 -3.443506 0.290471 -0.001032 0.000000 0.000000 0.000000 -37.787602 -50.520293 -29.172865 10.853653 -4.294870 -0.510224 3.370378 -1.393919 0.096813 0.794871 0.443957 0.417410 0.000000 0.000000 0.000000 3.838536 -2.190168 0.178577 1.890702 1.518921 -3.259095 -6.843352 -1.309916 3.710618 0.000000 0.000000 0.000000 4.034217 -2.493806 0.263192 1.218967 -15.628521 -10.556039 0.715119 -1.533324 -0.795215 -21.329907 0.368493 -39.404731 2.503309 -68.149900 2.488723 0.000000 0.000000 0.000000 3.264184 -2.394604 0.218532 -0.052808 11.443520 16.468957 2.174677 4.099951 -1.694526 -9.789119 -7.668233 61.505567 -0.308887 43.179524 1.176513 0.000000 0.000000 0.000000 
